<?xml version="1.0" encoding="UTF-8"?>
<!DOCTYPE svg PUBLIC "-//W3C//DTD SVG 1.1//EN" "http://www.w3.org/Graphics/SVG/1.1/DTD/svg11.dtd">
<!-- Creator: CorelDRAW -->
<svg xmlns="http://www.w3.org/2000/svg" xml:space="preserve" width="266.143mm" height="218.118mm" version="1.1" style="shape-rendering:geometricPrecision; text-rendering:geometricPrecision; image-rendering:optimizeQuality; fill-rule:evenodd; clip-rule:evenodd"
viewBox="0 0 3514.02 2879.92"
 xmlns:xlink="http://www.w3.org/1999/xlink"
 xmlns:xodm="http://www.corel.com/coreldraw/odm/2003">
 <defs>
  <style type="text/css">
   <![CDATA[
    .str0 {stroke:#6F5CD2;stroke-width:1.01;stroke-miterlimit:22.9256}
    .fil3 {fill:none}
    .fil0 {fill:#282829}
    .fil1 {fill:#6F5CD2}
    .fil2 {fill:#BD5182}
   ]]>
  </style>
 </defs>
 <g id="Слой_x0020_1">
  <metadata id="CorelCorpID_0Corel-Layer"/>
  <g id="_2009690512576">
   <path class="fil0" d="M389.22 2540.16c-130.86,35.96 -244.93,86.3 -348.5,145.64 -256.55,190.52 781.65,208.22 819.24,187.25 228.8,-178.55 497.68,-228.72 754.22,-309.49 454.27,-121.37 908.53,-242.73 1362.8,-364.1 210.02,-59.29 377.93,-141.27 496.74,-249.67 82.7,-87.28 28.05,-183.71 -72.82,-234.07 -191.73,-85.77 -397.37,-141.75 -616.38,-169.05 0,32.08 0,64.15 0,96.23 108.86,23.42 214.94,53.3 312.09,104.03 64.08,35.12 83.57,81.11 15.61,127.44 -194.9,105.81 -399.7,137.42 -602.81,181.73 1,160.34 -73.62,258.04 -222.22,198.62 -31.86,-13.44 -50.89,-70.29 -82.75,-83.72 -52.05,-21.95 -116.92,-0.51 -168.97,-22.47 -104.23,24.25 -208.46,48.51 -312.68,72.76 -0.05,168.72 -49.05,324.74 -239.92,232.05 -26.62,-12.63 -34.51,-88.4 -61.13,-101.03 -63.18,-29.97 -145.11,3.18 -208.29,-26.8 -107.5,22.29 -215.01,44.58 -322.51,66.86 7.15,297.06 -72.09,424.02 -232.06,322.51 -32.17,-20.85 -53.73,-60.01 -85.9,-80.86 -57.72,-37.4 -126.04,-56.48 -183.76,-93.88z"/>
   <path class="fil1" d="M557.63 2666.9c23.67,88.35 230.79,96.18 230.79,0 45.4,-307.62 41.89,-600.69 38.46,-909.4 -8.77,-131.87 -27.16,-263.75 -53.57,-395.63 74.45,65.62 110.54,251.11 114.02,538.5 0,56.26 140.82,30.94 148.36,-112.65 22.14,-280.8 -0.6,-542.73 -162.1,-725.33 -164.3,-163.59 -455.79,-162.41 -619.55,0 -159.8,163.68 -196.85,397.49 -170.34,667.63 22.27,174.24 82.19,230.12 190.95,164.85 10.51,254.07 26.88,508.14 50.69,762.21 0,100.84 206.31,106.79 232.29,9.82z"/>
   <circle class="fil1" cx="561.13" cy="613.82" r="253.16"/>
   <circle class="fil1 str0" cx="1401.8" cy="419.92" r="240.46"/>
   <circle class="fil1" cx="2201.69" cy="240.46" r="240.46"/>
   <circle class="fil2" cx="3095.58" cy="368.65" r="240.46"/>
   <path class="fil1" d="M980.92 1066.7c87.24,-343.39 495.51,-430.99 731.53,-206.81 135.6,144.81 183.42,431.87 141.86,722.98 -17.31,53.91 -43.42,97.61 -105.97,99.13 -17.91,-1.73 -26.37,-11.58 -27.64,-27.58 -2.12,-270.43 -41.12,-434.89 -108.64,-517.32 27.16,139.63 46.17,279.25 48.8,418.88 4.2,262.99 -12.12,525.97 -27.11,788.96 -12.31,171.49 -206.59,174.27 -230.45,35.24 -41.66,136.86 -205.09,138.16 -222.32,1.36 -26.35,-224.13 -49.74,-448.25 -63.71,-672.37 9.2,-252.98 -28.13,-472.91 -136.35,-642.46z"/>
   <path class="fil1" d="M1796.63 848.08c86.48,-317.79 474.09,-394.95 708.06,-172.71 134.42,143.55 181.82,428.11 140.63,716.68 -17.16,53.44 -43.05,96.76 -105.05,98.27 -17.76,-1.72 -26.14,-11.48 -27.4,-27.34 -2.11,-268.08 -40.76,-431.1 -107.69,-512.82 26.93,138.41 45.77,276.82 48.38,415.23 4.17,260.69 -12.01,521.39 -26.88,782.08 -12.21,167.07 -204.79,162.53 -228.44,34.94 -41.3,123.97 -203.3,116.5 -220.38,1.35 -26.12,-222.17 -21.35,-472.3 -35.21,-694.47 9.12,-250.77 -38.74,-473.13 -146.02,-641.2z"/>
   <path class="fil2" d="M2598.12 2100.28c13.13,96.6 190.06,98.98 196.22,-11.89 14.37,-208.12 28.74,-416.24 43.11,-624.35 41.13,12.06 83.69,5.15 123.38,-26.76 115.15,-101.39 187.02,-232.21 220.01,-389.48 11.77,-78.2 16.78,-167.9 -34.56,-244.82 -174.39,-238.21 -400.93,-293.45 -610.6,-211.56 224.79,194.91 327.97,983.56 -5.95,964.77 22.79,181.36 45.59,362.72 68.38,544.08zm285.18 -807.57c-45.85,163.15 108.84,-135.24 119.33,-264.35 0.74,-50.34 -107.93,232.94 -119.33,264.35z"/>
   <path class="fil3" d="M2883.3 1292.71c-45.85,163.16 108.84,-135.24 119.33,-264.35 0.74,-50.33 -107.93,232.94 -119.33,264.35z"/>
  </g>
 </g>
</svg>
